<svg xmlns="http://www.w3.org/2000/svg" xmlns:xlink="http://www.w3.org/1999/xlink" width="700" height="450"><style type="text/css">rect{stroke:#000;fill:#fff}text{font-family:Verdana,sans-serif;font-size:14;text-anchor:start}line,polyline{stroke:#000;stroke-width:1}polyline{fill:none}</style><defs><symbol id="filter1"><rect width="8" height="8" style="fill:#eca"/></symbol><symbol id="comp"><rect width="8" height="8" style="fill:#f95"/></symbol><symbol id="pixelfr"><rect width="8" height="8" style="fill:#eaa"/></symbol><symbol id="pixelfg"><rect width="8" height="8" style="fill:#aea"/></symbol><symbol id="pixelfb"><rect width="8" height="8" style="fill:#aae"/></symbol><symbol id="pixelfa"><rect width="8" height="8" style="fill:#ddd"/></symbol><symbol id="pixelr"><rect width="8" height="8" style="fill:red"/></symbol><symbol id="pixelg"><rect width="8" height="8" style="fill:green"/></symbol><symbol id="pixelb"><rect width="8" height="8" style="fill:#00f"/></symbol><symbol id="pixela"><rect width="8" height="8" style="fill:gray"/></symbol></defs><marker id="arrend" markerHeight="8" markerWidth="8" orient="auto" refX="8" refY="4"><path d="M 1 4 L 1 1 8 4 1 7z"/></marker><marker id="larrend" markerHeight="8" markerWidth="8" orient="auto" refX="0" refY="4"><path d="M 8 4 L 8 1 0 4 8 7z"/></marker><text x="130" y="50">First Pass</text><g><g transform="translate(200,0) scale(2)"><use transform="translate(2,10)" xlink:href="#filter1"/><use transform="translate(15,10)" xlink:href="#pixelfr"/><use transform="translate(25,10)" xlink:href="#pixelfg"/><use transform="translate(35,10)" xlink:href="#pixelfb"/><use transform="translate(45,10)" xlink:href="#pixelfa"/><use transform="translate(55,10)" xlink:href="#pixelfr"/><use transform="translate(65,10)" xlink:href="#pixelfg"/><use transform="translate(75,10)" xlink:href="#pixelfb"/><use transform="translate(85,10)" xlink:href="#pixelfa"/><g transform="translate(95,14)"><polyline marker-end="url(#arrend)" points="-80 11 -80 6 10 6 10 0 0 0"/></g></g></g><g><g transform="translate(220,30) scale(2)"><use transform="translate(2,10)" xlink:href="#filter1"/><use transform="translate(15,10)" xlink:href="#pixelfr"/><use transform="translate(25,10)" xlink:href="#pixelfg"/><use transform="translate(35,10)" xlink:href="#pixelfb"/><use transform="translate(45,10)" xlink:href="#pixelfa"/><use transform="translate(55,10)" xlink:href="#pixelfr"/><use transform="translate(65,10)" xlink:href="#pixelfg"/><use transform="translate(75,10)" xlink:href="#pixelfb"/><use transform="translate(85,10)" xlink:href="#pixelfa"/><g transform="translate(95,14)"><polyline marker-end="url(#arrend)" points="-80 16 -80 6 10 6 10 0 0 0"/></g></g></g><text x="170" y="120">Second Pass</text><g><g transform="translate(240,70) scale(2)"><use transform="translate(2,10)" xlink:href="#filter1"/><use transform="translate(15,10)" xlink:href="#pixelfr"/><use transform="translate(25,10)" xlink:href="#pixelfg"/><use transform="translate(35,10)" xlink:href="#pixelfb"/><use transform="translate(45,10)" xlink:href="#pixelfa"/><use transform="translate(55,10)" xlink:href="#pixelfr"/><use transform="translate(65,10)" xlink:href="#pixelfg"/><use transform="translate(75,10)" xlink:href="#pixelfb"/><use transform="translate(85,10)" xlink:href="#pixelfa"/><g transform="translate(95,14)"><polyline marker-end="url(#arrend)" points="-80 11 -80 6 10 6 10 0 0 0"/></g></g></g><g><g transform="translate(260,100) scale(2)"><use transform="translate(2,10)" xlink:href="#filter1"/><use transform="translate(15,10)" xlink:href="#pixelfr"/><use transform="translate(25,10)" xlink:href="#pixelfg"/><use transform="translate(35,10)" xlink:href="#pixelfb"/><use transform="translate(45,10)" xlink:href="#pixelfa"/><use transform="translate(55,10)" xlink:href="#pixelfr"/><use transform="translate(65,10)" xlink:href="#pixelfg"/><use transform="translate(75,10)" xlink:href="#pixelfb"/><use transform="translate(85,10)" xlink:href="#pixelfa"/><g transform="translate(95,14)"><polyline marker-end="url(#arrend)" points="-80 16 -80 6 10 6 10 0 0 0"/></g></g></g><text x="210" y="190">Third Pass</text><g><g transform="translate(280,140) scale(2)"><use transform="translate(2,10)" xlink:href="#filter1"/><use transform="translate(15,10)" xlink:href="#pixelfr"/><use transform="translate(25,10)" xlink:href="#pixelfg"/><use transform="translate(35,10)" xlink:href="#pixelfb"/><use transform="translate(45,10)" xlink:href="#pixelfa"/><use transform="translate(55,10)" xlink:href="#pixelfr"/><use transform="translate(65,10)" xlink:href="#pixelfg"/><use transform="translate(75,10)" xlink:href="#pixelfb"/><use transform="translate(85,10)" xlink:href="#pixelfa"/><use transform="translate(95,10)" xlink:href="#pixelfr"/><use transform="translate(105,10)" xlink:href="#pixelfg"/><use transform="translate(115,10)" xlink:href="#pixelfb"/><use transform="translate(125,10)" xlink:href="#pixelfa"/><use transform="translate(135,10)" xlink:href="#pixelfr"/><use transform="translate(145,10)" xlink:href="#pixelfg"/><use transform="translate(155,10)" xlink:href="#pixelfb"/><use transform="translate(165,10)" xlink:href="#pixelfa"/><g transform="translate(175,14)"><polyline marker-end="url(#arrend)" points="-160 11 -160 6 10 6 10 0 0 0"/></g></g></g><g><g transform="translate(300,170) scale(2)"><use transform="translate(2,10)" xlink:href="#filter1"/><use transform="translate(15,10)" xlink:href="#pixelfr"/><use transform="translate(25,10)" xlink:href="#pixelfg"/><use transform="translate(35,10)" xlink:href="#pixelfb"/><use transform="translate(45,10)" xlink:href="#pixelfa"/><use transform="translate(55,10)" xlink:href="#pixelfr"/><use transform="translate(65,10)" xlink:href="#pixelfg"/><use transform="translate(75,10)" xlink:href="#pixelfb"/><use transform="translate(85,10)" xlink:href="#pixelfa"/><use transform="translate(95,10)" xlink:href="#pixelfr"/><use transform="translate(105,10)" xlink:href="#pixelfg"/><use transform="translate(115,10)" xlink:href="#pixelfb"/><use transform="translate(125,10)" xlink:href="#pixelfa"/><use transform="translate(135,10)" xlink:href="#pixelfr"/><use transform="translate(145,10)" xlink:href="#pixelfg"/><use transform="translate(155,10)" xlink:href="#pixelfb"/><use transform="translate(165,10)" xlink:href="#pixelfa"/><g transform="translate(175,14)"><polyline marker-end="url(#arrend)" points="-160 16 -160 6 10 6 10 0 0 0"/></g></g></g><polyline marker-end="url(#arrend)" points="202 26 50 26 50 106"/><g><g><g transform="translate(40,106) scale(2) translate(0,0)"><use transform="translate(1,0)" xlink:href="#comp"/><use transform="translate(1,10)" xlink:href="#comp"/><use transform="translate(1,20)" xlink:href="#comp"/><use transform="translate(1,30)" xlink:href="#comp"/><use transform="translate(1,40)" xlink:href="#comp"/></g><g transform="translate(40,106) scale(2) translate(0,60)"><use transform="translate(1,0)" xlink:href="#comp"/><use transform="translate(1,10)" xlink:href="#comp"/><use transform="translate(1,20)" xlink:href="#comp"/><use transform="translate(1,30)" xlink:href="#comp"/><use transform="translate(1,40)" xlink:href="#comp"/></g><g transform="translate(40,106) scale(2) translate(0,120)"><use transform="translate(1,0)" xlink:href="#comp"/><use transform="translate(1,10)" xlink:href="#comp"/><use transform="translate(1,20)" xlink:href="#comp"/><use transform="translate(1,30)" xlink:href="#comp"/><use transform="translate(1,40)" xlink:href="#comp"/></g></g></g><g><text x="24" y="60" transform="translate(40,106)">Chunk</text><text x="24" y="180" transform="translate(40,106)">Chunk</text><text x="24" y="300" transform="translate(40,106)">Chunk</text></g><line x1="150" x2="150" y1="220" y2="300" marker-end="url(#arrend)"/><text x="155" y="250">Compressed</text><text x="155" y="265">datastream</text></svg>