<svg xmlns="http://www.w3.org/2000/svg" xmlns:xlink="http://www.w3.org/1999/xlink" width="640" height="290"><marker id="arrend" markerHeight="8" markerWidth="8" orient="auto" refX="8" refY="4"><path d="M 1 4 L 1 1 8 4 1 7z"/></marker><marker id="larrend" markerHeight="8" markerWidth="8" orient="auto" refX="0" refY="4"><path d="M 8 4 L 8 1 0 4 8 7z"/></marker><g transform="translate(10,10)"><g style="fill:#0ff;stroke:#000;stroke-width:1"><rect width="300" height="120" x="150" y="0" style="fill:#fff"/><rect width="300" height="120" x="100" y="50" style="fill:#88c"/><rect width="300" height="120" x="50" y="100" style="fill:#6d6"/><rect width="300" height="120" x="0" y="150" style="fill:#d66"/></g><g style="font-family:Verdana,sans-serif;font-size:14;fill:#000;text-anchor:start"><text x="5" y="165">red channel</text><text x="55" y="115">green channel</text><text x="105" y="65">blue channel</text><text x="155" y="15">alpha channel</text></g><g style="font-family:Verdana,sans-serif;font-size:14;fill:#000;text-anchor:end"><text x="295" y="165">red sample</text><text x="200" y="200">sample depth</text><text x="345" y="115">green sample</text><text x="395" y="65">blue sample</text><text x="445" y="15">alpha sample</text></g><rect width="15" height="15" x="205" y="170" style="stroke:#000;fill:#fff"/><rect width="15" height="15" x="225" y="170" style="stroke:#000;fill:#fff"/><rect width="15" height="15" x="245" y="170" style="stroke:#000;fill:#fff"/><rect width="15" height="15" x="265" y="170" style="stroke:#000;fill:#fff"/><g style="font-family:Courier;font-size:14;fill:#000;text-anchor:middle"><text x="212" y="180">1</text><text x="232" y="180">0</text><text x="252" y="180">0</text><text x="272" y="180">0</text></g><g><g style="stroke:#000;fill:#fff" transform="translate(50, -50)"><rect width="15" height="15" x="185" y="170"/><rect width="15" height="15" x="205" y="170"/><rect width="15" height="15" x="225" y="170"/><rect width="15" height="15" x="245" y="170"/><rect width="15" height="15" x="265" y="170"/></g><g style="font-family:Courier;font-size:14;fill:#000;text-anchor:middle"><text x="192" y="180" transform="translate(50, -50)">1</text><text x="212" y="180" transform="translate(50, -50)">1</text><text x="232" y="180" transform="translate(50, -50)">0</text><text x="252" y="180" transform="translate(50, -50)">1</text><text x="272" y="180" transform="translate(50, -50)">1</text></g></g><g><g style="stroke:#000;fill:#fff" transform="translate(100, -100)"><rect width="15" height="15" x="205" y="170"/><rect width="15" height="15" x="225" y="170"/><rect width="15" height="15" x="245" y="170"/><rect width="15" height="15" x="265" y="170"/></g><g style="font-family:Courier;font-size:14;fill:#000;text-anchor:middle"><text x="212" y="180" transform="translate(100, -100)">0</text><text x="232" y="180" transform="translate(100, -100)">0</text><text x="252" y="180" transform="translate(100, -100)">1</text><text x="272" y="180" transform="translate(100, -100)">0</text></g></g><g><g style="stroke:#000;fill:#fff" transform="translate(150, -150)"><rect width="15" height="15" x="205" y="170"/><rect width="15" height="15" x="225" y="170"/><rect width="15" height="15" x="245" y="170"/><rect width="15" height="15" x="265" y="170"/></g><g style="font-family:Courier;font-size:14;fill:#000;text-anchor:middle"><text x="212" y="180" transform="translate(150, -150)">1</text><text x="232" y="180" transform="translate(150, -150)">0</text><text x="252" y="180" transform="translate(150, -150)">0</text><text x="272" y="180" transform="translate(150, -150)">0</text></g></g><g style="fill:none;stroke:#000;stroke-width:1"><line x1="205" x2="280" y1="195" y2="195" marker-end="url(#arrend)" marker-start="url(#larrend)"/></g><g style="fill:none;stroke:#000;stroke-width:1;stroke-dasharray:5 2"><line x1="460" x2="285" y1="175" y2="175" marker-end="url(#arrend)"/><line x1="510" x2="335" y1="125" y2="125" marker-end="url(#arrend)"/><line x1="560" x2="385" y1="75" y2="75" marker-end="url(#arrend)"/><line x1="610" x2="435" y1="25" y2="25" marker-end="url(#arrend)"/></g><g style="fill:none;stroke:#000;stroke-width:1;stroke-dasharray:5 2"><line x1="460" x2="610" y1="175" y2="25"/></g><g style="font-family:Verdana,sans-serif;font-size:14;fill:#000;text-anchor:start"><text x="550" y="100">pixel</text></g></g></svg>