<svg xmlns="http://www.w3.org/2000/svg" xmlns:xlink="http://www.w3.org/1999/xlink" width="660" height="450"><g><g style="stroke:#000;stroke-width:1" transform="translate(10,0)"><path style="fill:none" d="M0 100 H 180 V 300 H 0 z"/><line x1="0" x2="180" y1="120" y2="120"/><line x1="0" x2="180" y1="140" y2="140"/><line x1="0" x2="180" y1="160" y2="160"/><line x1="0" x2="180" y1="180" y2="180"/><line x1="0" x2="180" y1="200" y2="200"/><line x1="0" x2="180" y1="220" y2="220"/><line x1="0" x2="180" y1="240" y2="240"/><line x1="0" x2="180" y1="260" y2="260"/><line x1="0" x2="180" y1="280" y2="280"/><line x1="20" x2="20" y1="100" y2="300"/><line x1="40" x2="40" y1="100" y2="300"/><line x1="60" x2="60" y1="100" y2="300"/><line x1="80" x2="80" y1="100" y2="300"/><line x1="100" x2="100" y1="100" y2="300"/><line x1="120" x2="120" y1="100" y2="300"/><line x1="140" x2="140" y1="100" y2="300"/><line x1="160" x2="160" y1="100" y2="300"/><rect width="18" height="18" x="161" y="101" style="stroke:none;fill:#fff"/><text x="165" y="115">0</text><line x1="180" x2="395" y1="110" y2="90"/><rect width="18" height="18" x="41" y="101" style="stroke:none;fill:#aca"/><text x="45" y="115">3</text><line x1="60" x2="395" y1="110" y2="148"/><rect width="18" height="18" x="81" y="141" style="stroke:none;fill:#aca"/><text x="85" y="155">3</text><line x1="100" x2="395" y1="150" y2="150"/><rect width="18" height="18" x="61" y="181" style="stroke:none;fill:#caa"/><text x="65" y="195">5</text><line x1="80" x2="395" y1="190" y2="190"/><rect width="18" height="18" x="61" y="221" style="stroke:none;fill:#aac"/><text x="65" y="235">8</text><line x1="80" x2="395" y1="230" y2="248"/><rect width="18" height="18" x="101" y="261" style="stroke:none;fill:#aac"/><text x="105" y="275">8</text><line x1="120" x2="395" y1="270" y2="250"/><rect width="18" height="18" x="61" y="281" style="stroke:none;fill:#aac"/><text x="65" y="295">8</text><line x1="80" x2="395" y1="290" y2="252"/><path style="fill:none" d="M 420 40 H 540 V 420 H 420 z"/><line x1="420" x2="540" y1="80" y2="80"/><text x="400" y="95">0</text><line x1="420" x2="540" y1="100" y2="100"/><text x="400" y="115">1</text><line x1="420" x2="540" y1="120" y2="120"/><text x="400" y="135">2</text><line x1="420" x2="540" y1="140" y2="140"/><text x="400" y="155">3</text><line x1="420" x2="540" y1="160" y2="160"/><text x="400" y="175">4</text><line x1="420" x2="540" y1="180" y2="180"/><text x="400" y="195">5</text><line x1="420" x2="540" y1="200" y2="200"/><text x="400" y="215">6</text><line x1="420" x2="540" y1="220" y2="220"/><text x="400" y="235">7</text><line x1="420" x2="540" y1="240" y2="240"/><text x="400" y="255">8</text><line x1="420" x2="540" y1="260" y2="260"/><text x="400" y="275">9</text><line x1="420" x2="540" y1="280" y2="280"/><text x="400" y="295">10</text><line x1="420" x2="540" y1="300" y2="300"/><text x="400" y="315">11</text><line x1="420" x2="540" y1="320" y2="320"/><text x="400" y="335">12</text><line x1="420" x2="540" y1="340" y2="340"/><text x="400" y="355">13</text><line x1="420" x2="540" y1="360" y2="360"/><text x="400" y="375">14</text><line x1="420" x2="540" y1="380" y2="380"/><text x="400" y="395">15</text><line x1="420" x2="540" y1="400" y2="400"/><text x="400" y="415">16</text><line x1="460" x2="460" y1="40" y2="420"/><line x1="500" x2="500" y1="40" y2="420"/><text x="425" y="95">255</text><text x="465" y="95">255</text><text x="505" y="95">255</text><text x="565" y="95">0</text><text x="425" y="155">176</text><text x="465" y="155">208</text><text x="505" y="155">176</text><text x="565" y="155">255</text><text x="425" y="195">208</text><text x="465" y="195">176</text><text x="505" y="195">176</text><text x="565" y="195">255</text><text x="425" y="255">176</text><text x="465" y="255">176</text><text x="505" y="255">208</text><text x="565" y="255">255</text><path style="fill:none" d="M 560 40 H 600 V 420 H 560 z"/><line x1="560" x2="600" y1="80" y2="80"/><line x1="560" x2="600" y1="100" y2="100"/><line x1="560" x2="600" y1="120" y2="120"/><line x1="560" x2="600" y1="140" y2="140"/><line x1="560" x2="600" y1="160" y2="160"/><line x1="560" x2="600" y1="180" y2="180"/><line x1="560" x2="600" y1="200" y2="200"/><line x1="560" x2="600" y1="220" y2="220"/><line x1="560" x2="600" y1="240" y2="240"/><line x1="560" x2="600" y1="260" y2="260"/><line x1="560" x2="600" y1="280" y2="280"/><line x1="560" x2="600" y1="300" y2="300"/><line x1="560" x2="600" y1="320" y2="320"/><line x1="560" x2="600" y1="340" y2="340"/><line x1="560" x2="600" y1="360" y2="360"/><line x1="560" x2="600" y1="380" y2="380"/><line x1="560" x2="600" y1="400" y2="400"/></g><g style="font-family:Verdana,sans-serif;stroke:none;font-size:14;fill:#000;text-anchor:start"><text x="20" y="20" transform="translate(10,0)">Indexed colour</text><text x="420" y="20" transform="translate(10,0)">Palette</text><text x="540" y="20" transform="translate(10,0)">Alpha table</text></g><g style="font-family:Verdana,sans-serif;stroke:none;font-size:14;fill:#000;text-anchor:middle"><text x="440" y="60" transform="translate(10,0)">R</text><text x="480" y="60" transform="translate(10,0)">G</text><text x="520" y="60" transform="translate(10,0)">B</text><text x="580" y="60" transform="translate(10,0)">A</text></g></g></svg>