<svg xmlns="http://www.w3.org/2000/svg" xmlns:xlink="http://www.w3.org/1999/xlink" width="660" height="450"><marker id="arrend" markerHeight="8" markerWidth="8" orient="auto" refX="8" refY="4"><path d="M 1 4 L 1 1 8 4 1 7z"/></marker><marker id="larrend" markerHeight="8" markerWidth="8" orient="auto" refX="0" refY="4"><path d="M 8 4 L 8 1 0 4 8 7z"/></marker><g style="stroke:#000;stroke-width:1"><rect width="20" height="20" x="20" y="60" style="stroke:#000;stroke-width:1;fill:#b88"/><text x="25" y="75">R</text><rect width="20" height="20" x="40" y="60" style="stroke:#000;stroke-width:1;fill:#8b8"/><text x="45" y="75">G</text><rect width="20" height="20" x="60" y="60" style="stroke:#000;stroke-width:1;fill:#88b"/><text x="65" y="75">B</text><rect width="20" height="20" x="80" y="60" style="stroke:#000;stroke-width:1;fill:none"/><text x="85" y="75">A</text><rect width="20" height="20" x="20" y="120" style="stroke:#000;stroke-width:1;fill:#aaa"/><text x="25" y="135">Y</text><rect width="20" height="20" x="40" y="120" style="stroke:#000;stroke-width:1;fill:#fff"/><text x="45" y="135">A</text><rect width="20" height="20" x="20" y="180" style="stroke:#000;stroke-width:1;fill:#b88"/><text x="25" y="195">R</text><rect width="20" height="20" x="40" y="180" style="stroke:#000;stroke-width:1;fill:#8b8"/><text x="45" y="195">G</text><rect width="20" height="20" x="60" y="180" style="stroke:#000;stroke-width:1;fill:#88b"/><text x="65" y="195">B</text><rect width="20" height="20" x="20" y="240" style="stroke:#000;stroke-width:1;fill:#aaa"/><text x="25" y="255">Y</text><rect width="20" height="20" x="20" y="300" style="stroke:#000;stroke-width:1;fill:#aca"/><text x="25" y="315">3</text><polyline marker-end="url(#arrend)" points="40 310 185 310 185 150 395 150" style="stroke:#000;stroke-width:1;fill:none"/><path style="fill:none" d="M 420 40 H 540 V 420 H 420 z"/><line x1="420" x2="540" y1="80" y2="80"/><text x="400" y="95">0</text><line x1="420" x2="540" y1="100" y2="100"/><text x="400" y="115">1</text><line x1="420" x2="540" y1="120" y2="120"/><text x="400" y="135">2</text><line x1="420" x2="540" y1="140" y2="140"/><text x="400" y="155">3</text><line x1="420" x2="540" y1="160" y2="160"/><text x="400" y="175">4</text><line x1="420" x2="540" y1="180" y2="180"/><text x="400" y="195">5</text><line x1="420" x2="540" y1="200" y2="200"/><text x="400" y="215">6</text><line x1="420" x2="540" y1="220" y2="220"/><text x="400" y="235">7</text><line x1="420" x2="540" y1="240" y2="240"/><text x="400" y="255">8</text><line x1="420" x2="540" y1="260" y2="260"/><text x="400" y="275">9</text><line x1="420" x2="540" y1="280" y2="280"/><text x="400" y="295">10</text><line x1="420" x2="540" y1="300" y2="300"/><text x="400" y="315">11</text><line x1="420" x2="540" y1="320" y2="320"/><text x="400" y="335">12</text><line x1="420" x2="540" y1="340" y2="340"/><text x="400" y="355">13</text><line x1="420" x2="540" y1="360" y2="360"/><text x="400" y="375">14</text><line x1="420" x2="540" y1="380" y2="380"/><text x="400" y="395">15</text><line x1="420" x2="540" y1="400" y2="400"/><text x="400" y="415">16</text><line x1="460" x2="460" y1="40" y2="420"/><line x1="500" x2="500" y1="40" y2="420"/><text x="425" y="95">255</text><text x="465" y="95">255</text><text x="505" y="95">255</text><text x="565" y="95">0</text><text x="425" y="155">176</text><text x="465" y="155">208</text><text x="505" y="155">176</text><text x="565" y="155">255</text><text x="425" y="195">208</text><text x="465" y="195">176</text><text x="505" y="195">176</text><text x="565" y="195">255</text><text x="425" y="255">176</text><text x="465" y="255">176</text><text x="505" y="255">208</text><text x="565" y="255">255</text><path style="fill:none" d="M560 40 H 600 V 420 H 560 z"/><line x1="560" x2="600" y1="80" y2="80"/><line x1="560" x2="600" y1="100" y2="100"/><line x1="560" x2="600" y1="120" y2="120"/><line x1="560" x2="600" y1="140" y2="140"/><line x1="560" x2="600" y1="160" y2="160"/><line x1="560" x2="600" y1="180" y2="180"/><line x1="560" x2="600" y1="200" y2="200"/><line x1="560" x2="600" y1="220" y2="220"/><line x1="560" x2="600" y1="240" y2="240"/><line x1="560" x2="600" y1="260" y2="260"/><line x1="560" x2="600" y1="280" y2="280"/><line x1="560" x2="600" y1="300" y2="300"/><line x1="560" x2="600" y1="320" y2="320"/><line x1="560" x2="600" y1="340" y2="340"/><line x1="560" x2="600" y1="360" y2="360"/><line x1="560" x2="600" y1="380" y2="380"/><line x1="560" x2="600" y1="400" y2="400"/></g><g style="font-family:Verdana,sans-serif;stroke:none;font-size:14;fill:#000;text-anchor:middle"><text x="440" y="60">R</text><text x="480" y="60">G</text><text x="520" y="60">B</text><text x="580" y="60">A</text></g><g style="font-family:Verdana,sans-serif;stroke:none;font-size:14;fill:#000;text-anchor:start"><text x="20" y="55">Truecolour with alpha</text><text x="20" y="115">Greyscale with alpha</text><text x="20" y="175">Truecolour</text><text x="20" y="235">Greyscale</text><text x="20" y="295">Indexed-colour</text><text x="420" y="20">Palette</text><text x="540" y="20">Alpha table</text></g></svg>