<svg xmlns="http://www.w3.org/2000/svg" xmlns:xlink="http://www.w3.org/1999/xlink" width="640" height="525"><marker id="arrend" markerHeight="8" markerWidth="8" orient="auto" refX="8" refY="4"><path d="M 1 4 L 1 1 8 4 1 7z"/></marker><marker id="larrend" markerHeight="8" markerWidth="8" orient="auto" refX="0" refY="4"><path d="M 8 4 L 8 1 0 4 8 7z"/></marker><g><g style="fill:#0ff;stroke:#000;stroke-width:1" transform="translate(10,10)"><rect width="150" height="50" x="100" y="0" style="fill:#0ff"/><rect width="150" height="50" x="200" y="80" style="fill:#0ff"/><rect width="150" height="50" x="200" y="190" style="fill:#0ff"/><rect width="150" height="50" x="200" y="295" style="fill:#0ff"/><rect width="150" height="50" x="100" y="380" style="fill:#0ff"/><rect width="150" height="50" x="100" y="455" style="fill:#0ff"/><rect width="150" height="165" x="0" y="185" style="fill:#0ff"/></g><g style="fill:none;stroke:#000;stroke-width:1" transform="translate(10,10)"><line x1="175" x2="175" y1="50" y2="380" marker-end="url(#arrend)"/><line x1="175" x2="275" y1="55" y2="80" marker-end="url(#arrend)"/><line x1="275" x2="175" y1="130" y2="155" marker-end="url(#arrend)"/><line x1="175" x2="275" y1="165" y2="190" marker-end="url(#arrend)"/><line x1="275" x2="175" y1="240" y2="265" marker-end="url(#arrend)"/><line x1="175" x2="275" y1="270" y2="295" marker-end="url(#arrend)"/><line x1="275" x2="175" y1="345" y2="370" marker-end="url(#arrend)"/><line x1="175" x2="75" y1="160" y2="185" marker-end="url(#arrend)"/><line x1="75" x2="175" y1="350" y2="372" marker-end="url(#arrend)"/><line x1="175" x2="175" y1="430" y2="455" marker-end="url(#arrend)"/></g><g style="font-family:Verdana,sans-serif;stroke:none;font-size:14;fill:#000;text-anchor:middle"><text x="175" y="25" transform="translate(10,10)">reference image</text><text x="275" y="105" transform="translate(10,10)">alpha separation</text><text x="275" y="215" transform="translate(10,10)">RGB merging</text><text x="275" y="320" transform="translate(10,10)">alpha compaction</text><text x="75" y="267.5" transform="translate(10,10)">indexing</text><text x="175" y="405" transform="translate(10,10)">sample depth scaling</text><text x="175" y="480" transform="translate(10,10)">PNG image</text></g></g></svg>