<svg xmlns="http://www.w3.org/2000/svg" xmlns:xlink="http://www.w3.org/1999/xlink" width="640" height="360"><style type="text/css">rect{stroke:#000;fill:#fff}text{text-anchor:middle}text,text.ljust,text.rjust{font-family:Verdana,sans-serif;font-size:14}text.ljust{text-anchor:start}text.rjust{text-anchor:end}line,path,polyline{stroke:#000;stroke-width:1}polyline{fill:none}path{fill:#fff}</style><marker id="arrend" markerHeight="8" markerWidth="8" orient="auto" refX="7" refY="4"><path d="M 1 4 L 1 1 7 4 1 7z" style="fill:#000"/></marker><g><g transform="translate(10,10)"><rect width="200" height="100"/><text x="100" y="20">p=a+b-c</text><text x="100" y="40">pa=abs(p-a)</text><text x="100" y="60">pb=abs(p-b)</text><text x="100" y="80">pc=abs(p-c)</text></g><g><path d="M 100 0 L 200 40 L 100 80 L 0 40 L 100 0 z" transform="translate(10,10) translate(320,45)"/><text x="100" y="45" transform="translate(10,10) translate(320,45)">pa&lt;=pb AND pa&lt;=pc</text><g transform="translate(10,10) translate(320,45) translate(0,40)"><line x1="0" x2="-40" y1="0" y2="0" marker-end="url(#arrend)"/><text x="-45" y="5" class="rjust">Pr=a</text><text x="-20" y="-5">Yes</text></g></g><g><path d="M 100 0 L 200 40 L 100 80 L 0 40 L 100 0 z" transform="translate(10,10) translate(320,165)"/><text x="100" y="45" transform="translate(10,10) translate(320,165)">pb&lt;=pc</text><g transform="translate(10,10) translate(320,165) translate(0,40)"><line x1="0" x2="-40" y1="0" y2="0" marker-end="url(#arrend)"/><text x="-45" y="5" class="rjust">Pr=b</text><text x="-20" y="-5">Yes</text></g></g><g transform="translate(10,10)"><line x1="420" x2="420" y1="245" y2="295" marker-end="url(#arrend)"/><text x="425" y="270" class="ljust">No</text></g><text x="420" y="305" transform="translate(10,10)">Pr=c</text><g transform="translate(10,10)"><polyline marker-end="url(#arrend)" points="200 10 420 10 420 45"/></g><g transform="translate(10,10)"><line x1="420" x2="420" y1="125" y2="165" marker-end="url(#arrend)"/><text x="425" y="150" class="ljust">No</text></g><g><g transform="translate(10,10) translate(500,260)"><rect width="20" height="20"/><text x="10" y="15">c</text></g><g transform="translate(10,10) translate(500,260) translate(25,0)"><rect width="20" height="20"/><text x="10" y="15">b</text></g><g transform="translate(10,10) translate(500,260) translate(0,25)"><rect width="20" height="20"/><text x="10" y="15">a</text></g><g transform="translate(10,10) translate(500,260) translate(25,25)"><rect width="20" height="20"/><text x="10" y="15">x</text></g><text x="22.5" y="-5" transform="translate(10,10) translate(500,260)">Bytes</text></g></g></svg>